<?xml version="1.0"?>
<svg version="1.1" xmlns="http://www.w3.org/2000/svg" width="400px" height="200px" style="border: dashed 2px #aaa"><path fill="#3777a6" d="M50,91.8173828125q0-0.287109375,0.39990234375-0.44091796875t0.52294921875-0.15380859375l0.7587890625-0.123046875q0.7587890625-0.123046875,1.5380859375-0.21533203125t1.517578125-0.17431640625q2.6044921875-0.328125,5.208984375-0.64599609375t5.25-0.31787109375q0.205078125,0,0.56396484375,0.0205078125t0.7177734375,0.11279296875t0.615234375,0.25634765625t0.25634765625,0.451171875q0,0.205078125-0.19482421875,0.35888671875t-0.46142578125,0.23583984375t-0.54345703125,0.1025390625t-0.44091796875,0.0205078125l-0.35888671875,0t-0.35888671875-0.08203125q-1.0869140625,0-2.14306640625,0.1025390625t-2.14306640625,0.1845703125q0.287109375,0.328125,0.3076171875,0.9228515625t0.041015625,1.025390625q0,7.259765625,0.1025390625,14.4375t0.1845703125,14.4990234375l0,0.041015625q-0.6767578125,0.5947265625-1.15869140625,0.7587890625t-0.97412109375,0.1640625q-0.4716796875,0-0.95361328125-0.17431640625t-1.15869140625-0.74853515625l0-0.041015625l0.1640625-16.0986328125q0-1.599609375-0.041015625-3.52734375t-0.041015625-3.90673828125t0.0615234375-3.82470703125t0.328125-3.2197265625q-1.2099609375,0.123046875-2.5634765625,0.369140625q-1.1689453125,0.205078125-2.2353515625,0.205078125l-0.369140625,0q-0.08203125,0-0.48193359375,0.0205078125t-0.8203125-0.0205078125t-0.7587890625-0.1640625t-0.33837890625-0.41015625z M70.275458984375,107.6083984375q0-0.8408203125,0.29736328125-1.4150390625t1.26123046875-0.57421875q0.369140625,0,0.9228515625,0.11279296875t0.6357421875,0.56396484375q0.205078125,1.2099609375,0.2255859375,2.625t0.1435546875,2.666015625q0.4716796875-0.9228515625,1.2099609375-1.9892578125t1.681640625-1.96875t2.05078125-1.4970703125t2.255859375-0.5947265625q0.08203125,0,0.3076171875,0.0615234375t0.42041015625,0.17431640625t0.23583984375,0.25634765625t-0.2255859375,0.2666015625q-0.08203125,0.24609375-0.3486328125,0.29736328125t-0.4716796875,0.05126953125q-0.123046875,0-0.3896484375-0.1025390625q-1.517578125,0.7998046875-2.583984375,2.173828125t-1.7431640625,3.04541015625t-0.984375,3.52734375t-0.3076171875,3.61962890625q0,0.8818359375-0.39990234375,1.06640625t-1.28173828125,0.1845703125q-0.4716796875,0-0.99462890625-0.1025390625t-0.72802734375-0.65625q-0.369140625-1.1689453125-0.60498046875-2.6865234375t-0.35888671875-3.12744140625t-0.17431640625-3.16845703125t-0.05126953125-2.8095703125z M84.84974609375,112.8583984375q0-1.88671875,0.44091796875-3.70166015625t0.74853515625-3.61962890625q0.08203125-0.4716796875,0.64599609375-0.58447265625t0.95361328125-0.11279296875q0.6767578125,0,1.0869140625,0.205078125q0.1640625,0.08203125,0.3076171875,0.1845703125t0.1435546875,0.2666015625q0,1.763671875-0.42041015625,3.4453125t-0.42041015625,3.568359375q0,0.6357421875,0.09228515625,1.19970703125t0.17431640625,1.11767578125l0.123046875,0.5947265625q0,0.1640625,0.0205078125,0.287109375t0.0615234375,0.287109375q0,0.369140625-0.52294921875,0.50244140625t-0.91259765625,0.13330078125q-0.5947265625,0-1.09716796875-0.23583984375t-0.78955078125-0.81005859375l-0.287109375-0.5947265625q-0.24609375-0.4716796875-0.24609375-1.05615234375t-0.1025390625-1.07666015625z M86.16224609375,100.5126953125l0-0.3896484375q0-0.9638671875,0.48193359375-1.72265625t1.44580078125-0.7587890625q0.123046875,0,0.23583984375,0.0205078125t0.23583984375,0.0205078125q0.24609375,0.041015625,0.64599609375,0.19482421875t0.39990234375,0.48193359375l0,0.041015625q-0.08203125,0.1640625-0.1025390625,0.33837890625t-0.1025390625,0.29736328125l0.041015625-0.041015625q-0.24609375,0.6357421875-0.39990234375,1.025390625t-0.33837890625,0.62548828125t-0.46142578125,0.33837890625t-0.78955078125,0.1025390625q-0.08203125,0-0.287109375-0.0205078125t-0.44091796875-0.08203125t-0.39990234375-0.1640625t-0.1640625-0.3076171875z M93.804892578125,105.9267578125q0-0.9638671875,0.37939453125-1.42529296875t1.38427734375-0.46142578125q0.5947265625,0,1.11767578125,0.24609375t0.52294921875,1.0458984375q0.08203125,1.1689453125,0.08203125,2.45068359375t0.2255859375,2.43017578125q0.5126953125-0.8408203125,1.15869140625-1.681640625t1.42529296875-1.4970703125t1.7021484375-1.05615234375t2.009765625-0.39990234375q1.4765625,0,2.501953125,0.615234375t1.69189453125,1.599609375t0.9638671875,2.22509765625t0.29736328125,2.49169921875q0,1.927734375-0.58447265625,3.14794921875t-1.54833984375,1.91748046875t-2.18408203125,0.943359375t-2.45068359375,0.24609375q-1.0869140625,0-2.0302734375-0.42041015625t-1.3125-1.58935546875q0-0.328125,0.48193359375-0.41015625t0.68701171875-0.08203125q0.6767578125,0,1.0048828125,0.369140625q0.24609375,0.287109375,0.54345703125,0.58447265625t0.62548828125,0.29736328125q0.6357421875,0,1.3330078125-0.35888671875t1.28173828125-0.943359375t0.984375-1.38427734375t0.39990234375-1.640625q0-0.7177734375-0.123046875-1.7841796875t-0.42041015625-2.05078125t-0.8203125-1.7021484375t-1.32275390625-0.7177734375q-1.2099609375,0-2.18408203125,1.107421875t-1.6201171875,2.666015625t-1.0048828125,3.240234375t-0.35888671875,2.8095703125t0.1435546875,2.8505859375t0.29736328125,3.57861328125t0.29736328125,3.57861328125t0.1435546875,2.8505859375q0,0.287109375-0.23583984375,0.46142578125t-0.56396484375,0.27685546875t-0.66650390625,0.123046875t-0.50244140625,0.0205078125q-0.5537109375,0-1.15869140625-0.123046875t-0.83056640625-0.7587890625q-0.287109375-1.0048828125-0.533203125-2.86083984375t-0.44091796875-4.1015625t-0.33837890625-4.716796875t-0.24609375-4.76806640625t-0.15380859375-4.2041015625t-0.05126953125-3.03515625z M113.3420703125,120.5283203125q0-0.123046875,0.08203125-0.87158203125t0.21533203125-1.8251953125t0.29736328125-2.3173828125t0.287109375-2.34814453125t0.21533203125-1.9482421875t0.09228515625-1.1279296875q-0.1640625-0.08203125-0.39990234375-0.23583984375t-0.23583984375-0.35888671875q0-0.287109375,0.27685546875-0.46142578125t0.48193359375-0.25634765625q0.08203125-1.0458984375,0.205078125-2.912109375t0.37939453125-4.02978515625t0.7177734375-4.388671875t1.22021484375-4.0400390625t1.8251953125-2.96337890625t2.625-1.1484375t2.583984375,0.984375t1.67138671875,2.5634765625t0.984375,3.5068359375t0.5126953125,3.8349609375t0.21533203125,3.568359375t0.08203125,2.666015625q0.041015625,0.6357421875,0.3076171875,0.85107421875t0.58447265625,0.29736328125t0.57421875,0.1845703125t0.25634765625,0.5126953125q0,0.4716796875-0.57421875,0.65625t-0.90234375,0.2255859375q0.205078125,2.5634765625,0.56396484375,5.044921875t0.95361328125,5.00390625q0.08203125,0.4716796875,0.2255859375,0.95361328125t0.1435546875,0.93310546875q0,0.328125-0.2255859375,0.54345703125t-0.58447265625,0.33837890625t-0.7177734375,0.1640625t-0.60498046875,0.041015625q-0.9228515625,0-1.55859375-0.3486328125t-0.8408203125-1.3330078125q-0.5537109375-2.6455078125-1.0869140625-5.5576171875q-0.451171875-2.5224609375-0.451171875-4.9013671875q0-0.369140625,0.0205078125-0.73828125q-1.72265625,0-3.4658203125,0.08203125t-3.3427734375,0.615234375q-0.041015625,0.5537109375-0.205078125,2.091796875t-0.369140625,3.3017578125t-0.42041015625,3.37353515625t-0.25634765625,2.28662109375q-0.041015625,0.287109375-0.42041015625,0.54345703125t-0.8203125,0.27685546875t-0.779296875-0.27685546875t-0.33837890625-1.05615234375z M117.17703125,108.1005859375q1.599609375-0.369140625,3.20947265625-0.4306640625t3.25048828125-0.1435546875q-0.08203125-0.5126953125-0.041015625-1.05615234375t0.041015625-1.09716796875q0-1.2099609375-0.0615234375-2.8095703125t-0.1845703125-3.240234375t-0.31787109375-3.22998046875t-0.44091796875-2.830078125t-0.52294921875-1.97900390625t-0.60498046875-0.73828125q-0.6357421875,0.041015625-1.19970703125,1.09716796875t-1.025390625,2.6865234375t-0.8408203125,3.650390625t-0.6357421875,3.94775390625t-0.42041015625,3.5888671875t-0.205078125,2.583984375z M134.00717773438,113.1044921875q0-1.599609375,0.33837890625-2.90185546875t1.07666015625-2.20458984375t1.93798828125-1.40478515625t2.92236328125-0.50244140625q0.9638671875,0,1.96875,0.25634765625t1.72265625,0.95361328125q0-0.41015625,0.08203125-1.69189453125t0.205078125-2.98388671875t0.25634765625-3.568359375t0.23583984375-3.4658203125t0.1845703125-2.6865234375t0.123046875-1.23046875q0.205078125-0.5947265625,0.7587890625-0.70751953125t1.0458984375-0.11279296875q1.2919921875,0,1.58935546875,0.41015625t0.29736328125,1.640625q0,4.4912109375-0.39990234375,8.94140625t-0.39990234375,8.94140625q0,2.8916015625,0.11279296875,5.81396484375t0.81005859375,5.75244140625l0.2255859375,0.205078125l0.123046875,0.369140625l-0.3076171875,0.4716796875q-0.779296875,0.4921875-1.8046875,0.4921875l-0.08203125,0q-1.0458984375,0-1.927734375-0.4921875q-0.328125-0.205078125-0.54345703125-1.22021484375t-0.33837890625-2.2353515625t-0.1845703125-2.34814453125t-0.1025390625-1.599609375q-0.7177734375,1.640625-1.95849609375,2.81982421875t-3.12744140625,1.17919921875q-1.4765625,0-2.419921875-0.6357421875t-1.46630859375-1.6201171875t-0.73828125-2.20458984375t-0.21533203125-2.43017578125z M136.48862304688,113.2275390625q0,0.4716796875,0.11279296875,1.39453125t0.35888671875,1.845703125t0.68701171875,1.640625t1.15869140625,0.7177734375q0.9638671875-0.4716796875,1.7431640625-1.56884765625t1.34326171875-2.419921875t0.8818359375-2.6455078125t0.31787109375-2.28662109375q0-1.2099609375-0.8818359375-2.009765625t-2.1123046875-0.7998046875q-0.369140625,0-0.74853515625,0.1435546875t-0.70751953125,0.328125q-0.7587890625,0.7177734375-1.17919921875,1.30224609375t-0.6357421875,1.2099609375t-0.27685546875,1.38427734375t-0.0615234375,1.763671875z M152.58048828125,105.7216796875q0-0.1640625,0.19482421875-0.29736328125t0.44091796875-0.19482421875t0.50244140625-0.08203125t0.37939453125-0.0205078125q0.9228515625,0,1.5791015625,0.8203125t1.13818359375,2.10205078125t0.8203125,2.830078125t0.64599609375,3.08642578125t0.60498046875,2.81982421875t0.66650390625,1.97900390625q0.6357421875-1.2509765625,1.15869140625-3.0146484375t0.9638671875-3.650390625t0.779296875-3.72216796875t0.54345703125-3.20947265625q0.08203125-0.369140625,0.5126953125-0.46142578125t0.7177734375-0.09228515625q0.4716796875,0,0.8203125,0.13330078125t0.3486328125,0.58447265625q0,0.7587890625-0.1845703125,2.06103515625t-0.50244140625,2.92236328125t-0.73828125,3.322265625t-0.90234375,3.22998046875t-1.0048828125,2.70703125t-1.03564453125,1.67138671875q-0.24609375,0.287109375-0.76904296875,0.39990234375t-0.87158203125,0.11279296875q-1.2099609375,0-2.009765625-0.6357421875l0,0.041015625q-1.2509765625-1.1689453125-1.845703125-2.8505859375t-0.861328125-3.5068359375t-0.48193359375-3.6298828125t-0.72802734375-3.28125q-0.08203125-0.1640625-0.205078125-0.48193359375t-0.287109375-0.6357421875t-0.27685546875-0.60498046875t-0.11279296875-0.451171875z M168.75438476563,112.8583984375q0-1.88671875,0.44091796875-3.70166015625t0.74853515625-3.61962890625q0.08203125-0.4716796875,0.64599609375-0.58447265625t0.95361328125-0.11279296875q0.6767578125,0,1.0869140625,0.205078125q0.1640625,0.08203125,0.3076171875,0.1845703125t0.1435546875,0.2666015625q0,1.763671875-0.42041015625,3.4453125t-0.42041015625,3.568359375q0,0.6357421875,0.09228515625,1.19970703125t0.17431640625,1.11767578125l0.123046875,0.5947265625q0,0.1640625,0.0205078125,0.287109375t0.0615234375,0.287109375q0,0.369140625-0.52294921875,0.50244140625t-0.91259765625,0.13330078125q-0.5947265625,0-1.09716796875-0.23583984375t-0.78955078125-0.81005859375l-0.287109375-0.5947265625q-0.24609375-0.4716796875-0.24609375-1.05615234375t-0.1025390625-1.07666015625z M170.06688476563,100.5126953125l0-0.3896484375q0-0.9638671875,0.48193359375-1.72265625t1.44580078125-0.7587890625q0.123046875,0,0.23583984375,0.0205078125t0.23583984375,0.0205078125q0.24609375,0.041015625,0.64599609375,0.19482421875t0.39990234375,0.48193359375l0,0.041015625q-0.08203125,0.1640625-0.1025390625,0.33837890625t-0.1025390625,0.29736328125l0.041015625-0.041015625q-0.24609375,0.6357421875-0.39990234375,1.025390625t-0.33837890625,0.62548828125t-0.46142578125,0.33837890625t-0.78955078125,0.1025390625q-0.08203125,0-0.287109375-0.0205078125t-0.44091796875-0.08203125t-0.39990234375-0.1640625t-0.1640625-0.3076171875z M177.70953125,108.0595703125q0-0.8408203125,0.4921875-1.44580078125t1.19970703125-0.984375t1.54833984375-0.56396484375t1.55859375-0.1845703125q0.5537109375,0,1.4765625,0.1640625t1.8046875,0.4921875t1.52783203125,0.861328125t0.64599609375,1.2509765625q0,0.328125-0.24609375,0.58447265625t-0.5126953125,0.25634765625q-0.5537109375,0-1.0048828125-0.35888671875t-0.93310546875-0.7587890625t-1.05615234375-0.7587890625t-1.2919921875-0.35888671875t-1.30224609375,0.46142578125t-0.58447265625,1.22021484375q0,1.2509765625,0.8818359375,2.45068359375t1.93798828125,2.5224609375t1.93798828125,2.77880859375t0.8818359375,3.2197265625q0,0.7587890625-0.31787109375,1.28173828125t-0.8408203125,0.85107421875t-1.17919921875,0.50244140625t-1.271484375,0.17431640625q-0.6767578125,0-1.5791015625-0.31787109375t-1.7021484375-0.8408203125t-1.34326171875-1.22021484375t-0.54345703125-1.4560546875q0-0.369140625,0.52294921875-0.4716796875t0.76904296875-0.1025390625q0.123046875,0,0.37939453125,0.08203125t0.50244140625,0.1845703125t0.44091796875,0.2255859375t0.15380859375,0.2666015625q0.205078125,0.24609375,0.62548828125,0.72802734375t0.8408203125,0.779296875t0.73828125,0.21533203125t0.31787109375-0.9228515625q0-1.599609375-0.861328125-2.94287109375t-1.87646484375-2.625t-1.87646484375-2.54296875t-0.861328125-2.69677734375z M191.75061523438,113.740234375q0-1.1689453125,0.29736328125-2.40966796875t0.943359375-2.2353515625t1.63037109375-1.6201171875t2.37890625-0.62548828125q1.0458984375,0,2.20458984375,0.35888671875t2.12255859375,1.025390625t1.56884765625,1.63037109375t0.60498046875,2.1533203125q0,1.435546875-0.52294921875,2.7275390625t-1.46630859375,2.30712890625t-2.20458984375,1.599609375t-2.73779296875,0.58447265625q-1.2099609375,0-2.1123046875-0.44091796875t-1.50732421875-1.17919921875t-0.90234375-1.7431640625t-0.29736328125-2.1328125z M194.76526367188,113.69921875q0,0.369140625,0.11279296875,1.0869140625t0.33837890625,1.40478515625t0.58447265625,1.189453125t0.87158203125,0.46142578125q1.0869140625-0.123046875,1.79443359375-0.70751953125t1.1484375-1.42529296875t0.615234375-1.8251953125t0.17431640625-1.8662109375q0-1.1279296875-0.44091796875-1.88671875t-1.44580078125-1.23046875q0,0.041015625,0.041015625,0.041015625t0.041015625-0.041015625l-0.5126953125-0.123046875q-0.205078125-0.08203125-0.50244140625-0.1845703125t-0.58447265625-0.451171875q-0.7998046875,0.287109375-1.24072265625,0.73828125t-0.66650390625,1.09716796875t-0.27685546875,1.54833984375t-0.05126953125,2.173828125z M207.28876953125,107.6083984375q0-0.8408203125,0.29736328125-1.4150390625t1.26123046875-0.57421875q0.369140625,0,0.9228515625,0.11279296875t0.6357421875,0.56396484375q0.205078125,1.2099609375,0.2255859375,2.625t0.1435546875,2.666015625q0.4716796875-0.9228515625,1.2099609375-1.9892578125t1.681640625-1.96875t2.05078125-1.4970703125t2.255859375-0.5947265625q0.08203125,0,0.3076171875,0.0615234375t0.42041015625,0.17431640625t0.23583984375,0.25634765625t-0.2255859375,0.2666015625q-0.08203125,0.24609375-0.3486328125,0.29736328125t-0.4716796875,0.05126953125q-0.123046875,0-0.3896484375-0.1025390625q-1.517578125,0.7998046875-2.583984375,2.173828125t-1.7431640625,3.04541015625t-0.984375,3.52734375t-0.3076171875,3.61962890625q0,0.8818359375-0.39990234375,1.06640625t-1.28173828125,0.1845703125q-0.4716796875,0-0.99462890625-0.1025390625t-0.72802734375-0.65625q-0.369140625-1.1689453125-0.60498046875-2.6865234375t-0.35888671875-3.12744140625t-0.17431640625-3.16845703125t-0.05126953125-2.8095703125z"/><path fill="#" d=""/></svg>
